<svg xmlns="http://www.w3.org/2000/svg" xmlns:xlink="http://www.w3.org/1999/xlink" width="200" zoomAndPan="magnify" viewBox="0 0 150 74.999997" height="100" preserveAspectRatio="xMidYMid meet" version="1.0"><defs><g/><clipPath id="5303deef9f"><path d="M 7.5 7.5 L 66.75 7.5 L 66.75 66.75 L 7.5 66.75 Z M 7.5 7.5 " clip-rule="nonzero"/></clipPath></defs><g clip-path="url(#5303deef9f)"><path fill="#ffffff" d="M 8.664062 8.066406 C 9.316406 7.558594 10.164062 7.378906 10.964844 7.578125 L 64.585938 20.984375 C 65.777344 21.285156 66.617188 22.355469 66.617188 23.585938 L 66.617188 50.394531 C 66.617188 51.625 65.777344 52.699219 64.585938 52.996094 L 10.964844 66.402344 C 10.164062 66.601562 9.316406 66.421875 8.664062 65.914062 C 8.015625 65.40625 7.632812 64.625 7.632812 63.800781 L 7.632812 10.179688 C 7.632812 9.355469 8.015625 8.574219 8.664062 8.066406 Z M 12.996094 13.613281 L 12.996094 60.367188 L 61.253906 48.300781 L 61.253906 25.679688 Z M 12.996094 13.613281 " fill-opacity="1" fill-rule="evenodd"/></g><g fill="#ffffff" fill-opacity="1"><g transform="translate(72.125037, 43.717874)"><g><path d="M 2 0 C 1.863281 0 1.738281 -0.0507812 1.625 -0.15625 C 1.519531 -0.269531 1.46875 -0.398438 1.46875 -0.546875 L 1.46875 -14.53125 C 1.46875 -14.6875 1.515625 -14.816406 1.609375 -14.921875 C 1.710938 -15.035156 1.84375 -15.09375 2 -15.09375 L 4.4375 -15.09375 C 4.769531 -15.09375 5.015625 -14.957031 5.171875 -14.6875 L 10.265625 -6.640625 L 10.265625 -14.53125 C 10.265625 -14.6875 10.3125 -14.816406 10.40625 -14.921875 C 10.507812 -15.035156 10.640625 -15.09375 10.796875 -15.09375 L 13.546875 -15.09375 C 13.703125 -15.09375 13.828125 -15.035156 13.921875 -14.921875 C 14.023438 -14.816406 14.078125 -14.6875 14.078125 -14.53125 L 14.078125 -0.5625 C 14.078125 -0.40625 14.023438 -0.269531 13.921875 -0.15625 C 13.828125 -0.0507812 13.703125 0 13.546875 0 L 11.109375 0 C 10.773438 0 10.53125 -0.132812 10.375 -0.40625 L 5.296875 -8.125 L 5.296875 -0.546875 C 5.296875 -0.378906 5.242188 -0.242188 5.140625 -0.140625 C 5.035156 -0.046875 4.90625 0 4.75 0 Z M 2 0 "/></g></g></g><g fill="#ffffff" fill-opacity="1"><g transform="translate(88.096203, 43.717874)"><g><path d="M 6.484375 0.21875 C 4.734375 0.21875 3.351562 -0.25 2.34375 -1.1875 C 1.34375 -2.132812 0.828125 -3.503906 0.796875 -5.296875 L 0.796875 -5.96875 C 0.859375 -7.675781 1.390625 -9.007812 2.390625 -9.96875 C 3.398438 -10.9375 4.757812 -11.421875 6.46875 -11.421875 C 7.707031 -11.421875 8.753906 -11.171875 9.609375 -10.671875 C 10.460938 -10.179688 11.097656 -9.5 11.515625 -8.625 C 11.941406 -7.757812 12.15625 -6.773438 12.15625 -5.671875 L 12.15625 -5.125 C 12.15625 -4.96875 12.101562 -4.835938 12 -4.734375 C 11.894531 -4.628906 11.757812 -4.578125 11.59375 -4.578125 L 4.765625 -4.578125 L 4.765625 -4.4375 C 4.773438 -3.789062 4.925781 -3.269531 5.21875 -2.875 C 5.507812 -2.476562 5.921875 -2.28125 6.453125 -2.28125 C 6.796875 -2.28125 7.070312 -2.347656 7.28125 -2.484375 C 7.488281 -2.628906 7.6875 -2.804688 7.875 -3.015625 C 8 -3.160156 8.097656 -3.25 8.171875 -3.28125 C 8.253906 -3.320312 8.382812 -3.34375 8.5625 -3.34375 L 11.390625 -3.34375 C 11.515625 -3.34375 11.625 -3.300781 11.71875 -3.21875 C 11.8125 -3.144531 11.859375 -3.050781 11.859375 -2.9375 C 11.859375 -2.5625 11.644531 -2.117188 11.21875 -1.609375 C 10.800781 -1.109375 10.1875 -0.675781 9.375 -0.3125 C 8.5625 0.0390625 7.597656 0.21875 6.484375 0.21875 Z M 8.1875 -6.765625 L 8.1875 -6.8125 C 8.1875 -7.5 8.035156 -8.03125 7.734375 -8.40625 C 7.429688 -8.789062 7.007812 -8.984375 6.46875 -8.984375 C 5.925781 -8.984375 5.503906 -8.789062 5.203125 -8.40625 C 4.910156 -8.03125 4.765625 -7.5 4.765625 -6.8125 L 4.765625 -6.765625 Z M 8.1875 -6.765625 "/></g></g></g><g fill="#ffffff" fill-opacity="1"><g transform="translate(101.394748, 43.717874)"><g><path d="M 4.375 0 C 4.175781 0 4.019531 -0.046875 3.90625 -0.140625 C 3.800781 -0.234375 3.722656 -0.367188 3.671875 -0.546875 L 0.5625 -10.515625 L 0.515625 -10.71875 C 0.515625 -10.863281 0.5625 -10.984375 0.65625 -11.078125 C 0.757812 -11.171875 0.878906 -11.21875 1.015625 -11.21875 L 3.359375 -11.21875 C 3.535156 -11.21875 3.679688 -11.171875 3.796875 -11.078125 C 3.910156 -10.984375 3.984375 -10.878906 4.015625 -10.765625 L 5.78125 -4.78125 L 7.65625 -10.71875 C 7.6875 -10.84375 7.757812 -10.957031 7.875 -11.0625 C 7.988281 -11.164062 8.140625 -11.21875 8.328125 -11.21875 L 9.8125 -11.21875 C 10 -11.21875 10.148438 -11.164062 10.265625 -11.0625 C 10.378906 -10.957031 10.457031 -10.84375 10.5 -10.71875 L 12.375 -4.78125 L 14.125 -10.765625 C 14.164062 -10.878906 14.238281 -10.984375 14.34375 -11.078125 C 14.457031 -11.171875 14.597656 -11.21875 14.765625 -11.21875 L 17.125 -11.21875 C 17.269531 -11.21875 17.382812 -11.171875 17.46875 -11.078125 C 17.5625 -10.984375 17.609375 -10.863281 17.609375 -10.71875 C 17.609375 -10.644531 17.601562 -10.578125 17.59375 -10.515625 L 14.46875 -0.546875 C 14.363281 -0.179688 14.132812 0 13.78125 0 L 11.734375 0 C 11.367188 0 11.125 -0.179688 11 -0.546875 L 9.078125 -6.28125 L 7.140625 -0.546875 C 7.035156 -0.179688 6.796875 0 6.421875 0 Z M 4.375 0 "/></g></g></g><g fill="#ffffff" fill-opacity="1"><g transform="translate(119.952325, 43.717874)"><g><path d="M 5.9375 0.21875 C 4.75 0.21875 3.757812 0.0507812 2.96875 -0.28125 C 2.1875 -0.613281 1.601562 -1.007812 1.21875 -1.46875 C 0.832031 -1.925781 0.640625 -2.34375 0.640625 -2.71875 C 0.640625 -2.863281 0.691406 -2.984375 0.796875 -3.078125 C 0.910156 -3.171875 1.035156 -3.21875 1.171875 -3.21875 L 3.78125 -3.21875 C 3.863281 -3.21875 3.929688 -3.1875 3.984375 -3.125 C 4.234375 -2.96875 4.375 -2.875 4.40625 -2.84375 C 4.675781 -2.644531 4.925781 -2.488281 5.15625 -2.375 C 5.394531 -2.269531 5.679688 -2.21875 6.015625 -2.21875 C 6.398438 -2.21875 6.71875 -2.289062 6.96875 -2.4375 C 7.226562 -2.59375 7.359375 -2.804688 7.359375 -3.078125 C 7.359375 -3.304688 7.285156 -3.492188 7.140625 -3.640625 C 7.003906 -3.785156 6.742188 -3.925781 6.359375 -4.0625 C 5.984375 -4.195312 5.410156 -4.335938 4.640625 -4.484375 C 2.148438 -4.984375 0.90625 -6.132812 0.90625 -7.9375 C 0.90625 -8.519531 1.09375 -9.082031 1.46875 -9.625 C 1.851562 -10.164062 2.414062 -10.597656 3.15625 -10.921875 C 3.894531 -11.253906 4.785156 -11.421875 5.828125 -11.421875 C 6.867188 -11.421875 7.773438 -11.257812 8.546875 -10.9375 C 9.316406 -10.613281 9.898438 -10.222656 10.296875 -9.765625 C 10.703125 -9.316406 10.90625 -8.90625 10.90625 -8.53125 C 10.90625 -8.40625 10.859375 -8.289062 10.765625 -8.1875 C 10.671875 -8.09375 10.5625 -8.046875 10.4375 -8.046875 L 8.0625 -8.046875 C 7.9375 -8.046875 7.835938 -8.070312 7.765625 -8.125 C 7.585938 -8.21875 7.414062 -8.328125 7.25 -8.453125 C 6.988281 -8.628906 6.757812 -8.757812 6.5625 -8.84375 C 6.375 -8.9375 6.128906 -8.984375 5.828125 -8.984375 C 5.460938 -8.984375 5.175781 -8.90625 4.96875 -8.75 C 4.769531 -8.59375 4.671875 -8.394531 4.671875 -8.15625 C 4.671875 -7.9375 4.734375 -7.757812 4.859375 -7.625 C 4.984375 -7.488281 5.234375 -7.351562 5.609375 -7.21875 C 5.992188 -7.09375 6.578125 -6.957031 7.359375 -6.8125 C 8.765625 -6.570312 9.785156 -6.140625 10.421875 -5.515625 C 11.066406 -4.890625 11.390625 -4.160156 11.390625 -3.328125 C 11.390625 -2.242188 10.910156 -1.378906 9.953125 -0.734375 C 8.992188 -0.0976562 7.65625 0.21875 5.9375 0.21875 Z M 5.9375 0.21875 "/></g></g></g><g fill="#ffffff" fill-opacity="1"><g transform="translate(20.39325, 43.717874)"><g><path d="M 2.03125 0 C 1.875 0 1.738281 -0.046875 1.625 -0.140625 C 1.519531 -0.242188 1.46875 -0.378906 1.46875 -0.546875 L 1.46875 -14.53125 C 1.46875 -14.6875 1.519531 -14.816406 1.625 -14.921875 C 1.738281 -15.035156 1.875 -15.09375 2.03125 -15.09375 L 4.46875 -15.09375 C 4.820312 -15.09375 5.078125 -14.9375 5.234375 -14.625 L 8.953125 -7.984375 L 12.671875 -14.625 C 12.835938 -14.9375 13.097656 -15.09375 13.453125 -15.09375 L 15.890625 -15.09375 C 16.046875 -15.09375 16.175781 -15.035156 16.28125 -14.921875 C 16.394531 -14.816406 16.453125 -14.6875 16.453125 -14.53125 L 16.453125 -0.546875 C 16.453125 -0.378906 16.394531 -0.242188 16.28125 -0.140625 C 16.175781 -0.046875 16.046875 0 15.890625 0 L 13.15625 0 C 13.007812 0 12.878906 -0.0507812 12.765625 -0.15625 C 12.660156 -0.269531 12.609375 -0.398438 12.609375 -0.546875 L 12.609375 -8.390625 L 10.28125 -4.125 C 10.09375 -3.789062 9.84375 -3.625 9.53125 -3.625 L 8.359375 -3.625 C 8.078125 -3.625 7.828125 -3.789062 7.609375 -4.125 L 5.296875 -8.390625 L 5.296875 -0.546875 C 5.296875 -0.378906 5.242188 -0.242188 5.140625 -0.140625 C 5.035156 -0.046875 4.90625 0 4.75 0 Z M 2.03125 0 "/></g></g></g><g fill="#ffffff" fill-opacity="1"><g transform="translate(38.735292, 43.717874)"><g><path d="M 5.890625 0 C 5.742188 0 5.613281 -0.0507812 5.5 -0.15625 C 5.394531 -0.269531 5.34375 -0.398438 5.34375 -0.546875 L 5.34375 -5.125 L 0.359375 -14.40625 C 0.316406 -14.476562 0.296875 -14.554688 0.296875 -14.640625 C 0.296875 -14.753906 0.34375 -14.859375 0.4375 -14.953125 C 0.53125 -15.046875 0.632812 -15.09375 0.75 -15.09375 L 3.59375 -15.09375 C 3.800781 -15.09375 3.96875 -15.039062 4.09375 -14.9375 C 4.226562 -14.84375 4.320312 -14.738281 4.375 -14.625 L 7.375 -9.203125 L 10.375 -14.625 C 10.425781 -14.738281 10.515625 -14.84375 10.640625 -14.9375 C 10.773438 -15.039062 10.941406 -15.09375 11.140625 -15.09375 L 14 -15.09375 C 14.113281 -15.09375 14.21875 -15.046875 14.3125 -14.953125 C 14.40625 -14.859375 14.453125 -14.753906 14.453125 -14.640625 C 14.453125 -14.554688 14.425781 -14.476562 14.375 -14.40625 L 9.40625 -5.125 L 9.40625 -0.546875 C 9.40625 -0.378906 9.347656 -0.242188 9.234375 -0.140625 C 9.128906 -0.046875 9 0 8.84375 0 Z M 5.890625 0 "/></g></g></g></svg>